<svg xmlns="http://www.w3.org/2000/svg" width="115.34" height="105.73" viewBox="0 0 115.34 105.73"><defs><style>.cls-1{isolation:isolate;}.cls-2,.cls-6,.cls-9{fill:#ad703e;}.cls-10,.cls-3{fill:#bf7e4c;}.cls-4,.cls-5{fill:#935e36;}.cls-10,.cls-5,.cls-6,.cls-7,.cls-8,.cls-9{fill-rule:evenodd;}.cls-7{fill:#7a4d2e;}.cls-8{fill:#633e25;}.cls-9{stroke:#935e36;stroke-miterlimit:22.93;stroke-width:5px;}.cls-11{opacity:0.2;mix-blend-mode:screen;}.cls-12{fill:#ff7000;}.cls-13{fill:#ff8308;}.cls-14{fill:#ffd123;}.cls-15{fill:#ffb000;}.cls-16{fill:#ffd500;}.cls-17{fill:#ab3b00;}.cls-18{fill:#8b2900;}.cls-19{fill:#ffd01e;}.cls-20{fill:#fff587;}.cls-21{fill:#fda700;}</style></defs><g class="cls-1"><g id="Layer_4" data-name="Layer 4"><rect class="cls-2" x="49.77" y="2.58" width="15.9" height="103.15"/><rect class="cls-3" x="49.77" y="2.58" width="3.19" height="103.15"/><rect class="cls-4" x="62.49" y="2.58" width="3.19" height="103.15"/><polygon class="cls-5" points="57.72 54.16 52.96 71.71 52.96 105.73 62.48 105.73 62.48 60.53 58.35 71.98 57.72 54.16"/><polygon class="cls-6" points="49.77 59.66 49.77 105.73 52.96 105.73 52.96 71.71 50.74 56.81 49.77 59.66"/><polygon class="cls-7" points="62.48 60.53 62.48 105.73 65.67 105.73 65.67 68.69 64.24 71.15 62.48 60.53"/><polygon class="cls-5" points="49.77 85.81 49.77 105.73 52.96 105.73 52.96 88.3 52.76 94.06 49.77 85.81"/><polygon class="cls-7" points="58.14 93.79 53.38 76.24 52.96 88.3 52.96 105.73 62.48 105.73 62.48 85.14 60.36 78.89 58.14 93.79"/><polygon class="cls-8" points="62.48 85.14 62.48 105.73 65.67 105.73 65.67 83.59 65.01 92.55 62.48 85.14"/><polygon class="cls-9" points="2.59 17.26 9.51 19.93 2.59 21.23 2.59 55.57 9.51 56.25 2.59 58.58 2.59 71.32 112.74 71.32 112.74 49.44 106.67 47.1 112.74 46.23 112.74 2.58 2.59 2.58 2.59 17.26"/><polygon class="cls-10" points="73.21 13 82.52 10.7 40.33 10.68 73.21 13"/><polygon class="cls-10" points="85 30.84 93.22 28.51 55.22 28.67 85 30.84"/><polygon class="cls-10" points="23.43 43.71 72.75 41.38 16.45 42.36 23.43 43.71"/><polygon class="cls-10" points="76.48 60.77 88.57 59.07 55.23 57.63 76.48 60.77"/><g class="cls-11"><path class="cls-12" d="M80.71,13.35S73.35,13,73.86,4.74C73.86,4.74,81.34,6.07,80.71,13.35Z"/><path class="cls-13" d="M80.71,13.35,73.86,4.74a8.17,8.17,0,0,1,5.72,3.57A7.82,7.82,0,0,1,80.71,13.35Z"/><path class="cls-12" d="M34.46,13.35s7.36-.33,6.86-8.61C41.32,4.74,33.83,6.07,34.46,13.35Z"/><path class="cls-13" d="M34.46,13.35l6.86-8.61a8.17,8.17,0,0,0-5.73,3.57A7.89,7.89,0,0,0,34.46,13.35Z"/><path class="cls-12" d="M32,17.49s5-5.42-1.2-10.95C30.79,6.54,26.42,12.76,32,17.49Z"/><path class="cls-13" d="M32,17.49,30.79,6.54a8.21,8.21,0,0,0-1.55,6.57A7.93,7.93,0,0,0,32,17.49Z"/><path class="cls-12" d="M31.22,17S35,10.72,42.07,15.12C42.07,15.12,37.32,21.06,31.22,17Z"/><path class="cls-13" d="M31.22,17l10.85-1.91a8.19,8.19,0,0,1-5.88,3.33A8,8,0,0,1,31.22,17Z"/><path class="cls-12" d="M28.83,26.13s3.05-6.71-4.56-10C24.27,16.11,22.06,23.39,28.83,26.13Z"/><path class="cls-13" d="M28.83,26.13l-4.56-10a8.16,8.16,0,0,0,.58,6.72A7.87,7.87,0,0,0,28.83,26.13Z"/><path class="cls-12" d="M28,25.93s1.64-7.18,9.7-5.2C37.66,20.73,35,27.86,28,25.93Z"/><path class="cls-13" d="M28,25.93l9.7-5.2a8.17,8.17,0,0,1-4.54,5A7.84,7.84,0,0,1,28,25.93Z"/><path class="cls-12" d="M29.45,36.19s-.82-7.32-9.06-6.26C20.39,29.93,22.23,37.31,29.45,36.19Z"/><path class="cls-13" d="M29.45,36.19l-9.06-6.26a8.17,8.17,0,0,0,3.95,5.47A7.84,7.84,0,0,0,29.45,36.19Z"/><path class="cls-12" d="M28.78,36.11s-2.28-7,5.66-9.44C34.44,26.67,35.82,34.15,28.78,36.11Z"/><path class="cls-13" d="M28.78,36.11l5.66-9.44a8.2,8.2,0,0,1-1.33,6.61A7.86,7.86,0,0,1,28.78,36.11Z"/><path class="cls-12" d="M32.87,46.66s-2.29-7-10.14-4.3C22.73,42.36,26,49.22,32.87,46.66Z"/><path class="cls-13" d="M32.87,46.66l-10.14-4.3a8.18,8.18,0,0,0,5,4.56A7.86,7.86,0,0,0,32.87,46.66Z"/><path class="cls-12" d="M32.19,46.73s-3.64-6.41,3.64-10.4C35.83,36.33,38.69,43.38,32.19,46.73Z"/><path class="cls-13" d="M32.19,46.73l3.64-10.4a8.19,8.19,0,0,1,0,6.75A7.93,7.93,0,0,1,32.19,46.73Z"/><path class="cls-12" d="M39.14,53.29s-4.72-5.66-11-.24C28.13,53.05,33.73,58.2,39.14,53.29Z"/><path class="cls-13" d="M39.14,53.29l-11-.24a8.19,8.19,0,0,0,6.31,2.39A7.88,7.88,0,0,0,39.14,53.29Z"/><path class="cls-12" d="M38.54,53.6s-5.76-4.6-.47-11C38.07,42.6,43.33,48.08,38.54,53.6Z"/><path class="cls-13" d="M38.54,53.6l-.47-11a8.19,8.19,0,0,1,2.52,6.26A8,8,0,0,1,38.54,53.6Z"/><path class="cls-12" d="M83.34,17.49s-5-5.42,1.2-10.95C84.54,6.54,88.92,12.76,83.34,17.49Z"/><path class="cls-13" d="M83.34,17.49l1.2-10.95a8.17,8.17,0,0,1,1.55,6.57A7.88,7.88,0,0,1,83.34,17.49Z"/><path class="cls-12" d="M84.11,17s-3.81-6.31-10.84-1.91C73.27,15.12,78,21.06,84.11,17Z"/><path class="cls-13" d="M84.11,17,73.27,15.12a8.19,8.19,0,0,0,5.87,3.33A8,8,0,0,0,84.11,17Z"/><path class="cls-12" d="M86.5,26.13s-3-6.71,4.57-10C91.07,16.11,93.28,23.39,86.5,26.13Z"/><path class="cls-13" d="M86.5,26.13l4.57-10a8.24,8.24,0,0,1-.58,6.72A7.88,7.88,0,0,1,86.5,26.13Z"/><path class="cls-12" d="M87.38,25.93s-1.64-7.18-9.71-5.2C77.67,20.73,80.33,27.86,87.38,25.93Z"/><path class="cls-13" d="M87.38,25.93l-9.71-5.2a8.21,8.21,0,0,0,4.54,5A7.87,7.87,0,0,0,87.38,25.93Z"/><path class="cls-12" d="M85.88,36.19s.83-7.32,9.06-6.26C94.94,29.93,93.1,37.31,85.88,36.19Z"/><path class="cls-13" d="M85.88,36.19l9.06-6.26a8.17,8.17,0,0,1-4,5.47A7.83,7.83,0,0,1,85.88,36.19Z"/><path class="cls-12" d="M86.56,36.11s2.28-7-5.66-9.44C80.9,26.67,79.52,34.15,86.56,36.11Z"/><path class="cls-13" d="M86.56,36.11,80.9,26.67a8.2,8.2,0,0,0,1.33,6.61A7.83,7.83,0,0,0,86.56,36.11Z"/><path class="cls-12" d="M82.47,46.66s2.28-7,10.14-4.3C92.61,42.36,89.32,49.22,82.47,46.66Z"/><path class="cls-13" d="M82.47,46.66l10.14-4.3a8.21,8.21,0,0,1-5,4.56A7.82,7.82,0,0,1,82.47,46.66Z"/><path class="cls-12" d="M83.14,46.73s3.65-6.41-3.64-10.4C79.5,36.33,76.65,43.38,83.14,46.73Z"/><path class="cls-13" d="M83.14,46.73,79.5,36.33a8.21,8.21,0,0,0,0,6.75A8,8,0,0,0,83.14,46.73Z"/><path class="cls-12" d="M76.19,53.29s4.72-5.66,11-.24C87.2,53.05,81.61,58.2,76.19,53.29Z"/><path class="cls-13" d="M76.19,53.29l11-.24a8.19,8.19,0,0,1-6.31,2.39A7.92,7.92,0,0,1,76.19,53.29Z"/><path class="cls-12" d="M76.8,53.6s5.76-4.6.47-11C77.27,42.6,72,48.08,76.8,53.6Z"/><path class="cls-13" d="M76.8,53.6l.47-11a8.22,8.22,0,0,0-2.53,6.26A7.89,7.89,0,0,0,76.8,53.6Z"/><path class="cls-12" d="M57.57,60.84A29.6,29.6,0,0,1,35.13,11.93a.43.43,0,0,1,.62,0,.45.45,0,0,1,0,.62,28.72,28.72,0,1,0,43.54,0,.44.44,0,0,1,.67-.57A29.61,29.61,0,0,1,57.57,60.84Z"/><path class="cls-14" d="M75.71,10.54H39.46S39,42.57,57.1,43.43h1C76.13,42.57,75.71,10.54,75.71,10.54Z"/><path class="cls-15" d="M75.71,10.54H66c0,3.92-.85,27.36-14,31.67a13.6,13.6,0,0,0,5.08,1.22h1C76.13,42.57,75.71,10.54,75.71,10.54Z"/><path class="cls-15" d="M68.08,36.74,67.29,35c.16-.07,16.22-7.3,14.78-15.44-.3-1.7-.93-2.73-1.89-3.06-2.41-.84-6.8,2.41-8.15,3.61l-1.29-1.44c.62-.55,6.15-5.36,10.08-4,1.67.58,2.73,2.12,3.17,4.56C85.68,28.83,68.8,36.42,68.08,36.74Z"/><path class="cls-14" d="M47.47,36.74c-.72-.32-17.61-7.91-15.91-17.55.43-2.44,1.5-4,3.17-4.56,3.93-1.35,9.46,3.46,10.08,4l-1.3,1.44.65-.72-.65.72c-1.44-1.29-5.72-4.45-8.15-3.61-1,.33-1.59,1.36-1.89,3.06C32,27.67,48.09,34.9,48.26,35Z"/><path class="cls-16" d="M75.27,10.72H39.9a2,2,0,0,1-2-2h0a2,2,0,0,1,2-2H75.27a2,2,0,0,1,2,2h0A2,2,0,0,1,75.27,10.72Z"/><path class="cls-15" d="M59.75,42s1.06,13.06,7.54,13.85h-9.7V42.11Z"/><path class="cls-15" d="M59.75,42s1.06,13.06,7.54,13.85h-9.7V42.11Z"/><path class="cls-15" d="M55.41,42s-1.07,13.06-7.55,13.85h9.71V42.11Z"/><rect class="cls-17" x="35.93" y="55.87" width="43.3" height="12.17"/><path class="cls-18" d="M79.24,68H35.93L47,66.48A96.25,96.25,0,0,0,79.08,56l.16-.09Z"/><path class="cls-19" d="M69.5,55.87H45.64a3.44,3.44,0,0,1,3.44-3.44h17a3.44,3.44,0,0,1,3.44,3.44Z"/><path class="cls-20" d="M55.07,53.4c0,.42-1.53.75-3.43.75s-3.42-.33-3.42-.75,1.53-.74,3.42-.74S55.07,53,55.07,53.4Z"/><ellipse class="cls-20" cx="45.64" cy="17.51" rx="4.15" ry="5.29"/><ellipse class="cls-20" cx="44.06" cy="8.03" rx="4.16" ry="1.01"/><ellipse class="cls-20" cx="51.51" cy="8.03" rx="2.08" ry="1.01"/><path class="cls-21" d="M57.63,15.44l1.86,3.78,4.16.6a.05.05,0,0,1,0,.08l-3,2.93L61.37,27a0,0,0,0,1-.06.05l-3.72-2-3.73,2A0,0,0,0,1,53.8,27l.71-4.15-3-2.93a0,0,0,0,1,0-.08l4.16-.6,1.87-3.78S57.61,15.41,57.63,15.44Z"/><rect class="cls-14" x="39.78" y="57.46" width="35.57" height="9"/><path class="cls-15" d="M75.35,57.46a94.91,94.91,0,0,1-9.78,4.23A95.78,95.78,0,0,1,47,66.48l28.35,0Z"/></g></g></g></svg>