<svg xmlns="http://www.w3.org/2000/svg" width="390.76" height="94.48" viewBox="0 0 390.76 94.48"><defs><style>.cls-1,.cls-5{fill:#7b4720;}.cls-1,.cls-10,.cls-11,.cls-2,.cls-3,.cls-4,.cls-8,.cls-9{fill-rule:evenodd;}.cls-2{fill:#5e3518;}.cls-3,.cls-7{fill:#ab6c48;}.cls-4,.cls-6{fill:#8f5833;}.cls-8{opacity:0.2;}.cls-9{fill:#6fa024;}.cls-10{fill:#b2cf2a;}.cls-11{fill:#c5dd5c;}</style></defs><g id="Layer_1" data-name="Layer 1"><path class="cls-1" d="M12.23,19.13c2.23,3.13-5.06,6.35-7.29,12.23C7.1,50.2,20.5,54.69,42.51,54.84c11.1.08,7.71,14.23,20.7,20.43C70.82,78.91,85.8,89,96.11,91.36c15.58,3.54,25,3.24,34.14,3V0H14.32C14.31.12,7,11.74,12.23,19.13Z"/><path class="cls-2" d="M130.25,94.33c16.55,0,23.81-6.63,40.36-6.63,8.92,0,21,7.34,31.28,6.63,9.76-.68,23.24-6.3,30.35-6.23,11.17.11,8.81,6.23,28.27,6.23V0H130.25Z"/><path class="cls-1" d="M130.25,86.91c16.55,0,15.21-9.65,31.75-9.65,8.93,0,29.59,11.69,39.89,11,9.75-.68,29.94-6.48,37.05-6.42,11.17.11,2.11,5.1,21.57,5.1V0H130.25Z"/><path class="cls-3" d="M130.25,46.54c11.83-1.9,10.7,5.31,17.29,5.57s9.84-7.29,14.84-7.66,3.5,1.06,7.31,4.46,10.71,10.75,16.21,7.9,7-5.74,13.58-.33c14.08,11.52,19.63-35,33.1-7.29,1.46,3,15,10,17.87,4.29s4.92-5.21,10.06-6.94V0H130.25Z"/><path class="cls-4" d="M250.45,33.87c-2.9,5.74-16.41-1.3-17.87-4.29-13.47-27.72-19,18.81-33.1,7.29-6.61-5.41-8.09-2.53-13.58.33s-12.4-4.51-16.21-7.91-2.31-4.82-7.31-4.45-8.25,7.92-14.84,7.66-5.46-7.47-17.29-5.57V57c5.21,0,7.16.93,10.06,6.67s16.41-1.3,17.87-4.29c13.47-27.72,19,18.81,33.1,7.28,6.61-5.4,8.09-2.52,13.58.34s12.4-4.51,16.21-7.91,2.31-4.83,7.31-4.46,8.25,7.93,14.84,7.67,5.46-4.76,17.29-5.3V27.2C255.3,27.2,253.35,28.13,250.45,33.87Z"/><circle class="cls-5" cx="148.48" cy="55.95" r="5.83" transform="translate(-8.86 35.44) rotate(-13.22)"/><path class="cls-1" d="M138.35,43.1a2.72,2.72,0,1,0,2.71,2.72A2.72,2.72,0,0,0,138.35,43.1Z"/><path class="cls-1" d="M167.56,36.08a2.78,2.78,0,1,0,2.79,2.78A2.77,2.77,0,0,0,167.56,36.08Z"/><path class="cls-1" d="M183.46,51.45a4.64,4.64,0,1,0,4.64,4.64A4.63,4.63,0,0,0,183.46,51.45Z"/><path class="cls-1" d="M207.53,53.79a5.11,5.11,0,1,0,5.11,5.1A5.11,5.11,0,0,0,207.53,53.79Z"/><path class="cls-1" d="M202.61,44.56a2.06,2.06,0,1,0,2.06,2A2.05,2.05,0,0,0,202.61,44.56Z"/><path class="cls-1" d="M229.38,42.57a2.85,2.85,0,1,0,2.85,2.85A2.85,2.85,0,0,0,229.38,42.57Z"/><path class="cls-1" d="M218.78,38.46A4.18,4.18,0,1,0,223,42.63,4.18,4.18,0,0,0,218.78,38.46Z"/><path class="cls-1" d="M243.49,50.71a3.39,3.39,0,1,0,3.39,3.39A3.39,3.39,0,0,0,243.49,50.71Z"/><path class="cls-1" d="M247.86,43.76a1.59,1.59,0,1,0,1.59,1.59A1.59,1.59,0,0,0,247.86,43.76Z"/><path class="cls-4" d="M135.78,65.76a2.38,2.38,0,1,0,2.38,2.38A2.38,2.38,0,0,0,135.78,65.76Z"/><path class="cls-4" d="M150.25,69.59a2.59,2.59,0,1,0,2.58,2.59A2.58,2.58,0,0,0,150.25,69.59Z"/><path class="cls-4" d="M164.07,57a2.72,2.72,0,1,0,2.71,2.72A2.72,2.72,0,0,0,164.07,57Z"/><path class="cls-4" d="M181.69,74.77a1.52,1.52,0,1,0,1.52,1.52A1.52,1.52,0,0,0,181.69,74.77Z"/><path class="cls-4" d="M198.52,68.14a1.39,1.39,0,1,0,1.39,1.39A1.39,1.39,0,0,0,198.52,68.14Z"/><path class="cls-4" d="M220.48,67.27a1.92,1.92,0,1,0,1.92,1.92A1.92,1.92,0,0,0,220.48,67.27Z"/><circle class="cls-6" cx="231.51" cy="65.56" r="3.71"/><path class="cls-4" d="M250.86,65.56A2.19,2.19,0,1,0,253,67.74,2.19,2.19,0,0,0,250.86,65.56Z"/><path class="cls-4" d="M140.16,16.07a2.79,2.79,0,1,0,2.78,2.78A2.78,2.78,0,0,0,140.16,16.07Z"/><path class="cls-4" d="M160.1,9.58A1.39,1.39,0,1,0,161.49,11,1.39,1.39,0,0,0,160.1,9.58Z"/><path class="cls-4" d="M179.12,21.77a4.51,4.51,0,1,0,4.5,4.5A4.51,4.51,0,0,0,179.12,21.77Z"/><path class="cls-4" d="M198.4,20.18A1.79,1.79,0,1,0,200.19,22,1.79,1.79,0,0,0,198.4,20.18Z"/><path class="cls-4" d="M201.91,8.39a.79.79,0,0,0-.8.79.8.8,0,0,0,.8.8.79.79,0,0,0,.79-.8A.79.79,0,0,0,201.91,8.39Z"/><path class="cls-4" d="M248.55,22.83a2.52,2.52,0,1,0,2.52,2.52A2.52,2.52,0,0,0,248.55,22.83Z"/><path class="cls-4" d="M236,20.44a1.33,1.33,0,1,0,1.33,1.33A1.33,1.33,0,0,0,236,20.44Z"/><path class="cls-4" d="M206.08,26.14a4.31,4.31,0,1,0,4.31,4.31A4.3,4.3,0,0,0,206.08,26.14Z"/><path class="cls-4" d="M249.61,10a2.12,2.12,0,1,0,2.12,2.12A2.12,2.12,0,0,0,249.61,10Z"/><circle class="cls-7" cx="148.35" cy="39.09" r="1.89"/><path class="cls-3" d="M166.9,28.92a1,1,0,1,0,1,1A1,1,0,0,0,166.9,28.92Z"/><path class="cls-3" d="M189.52,37.27A2.45,2.45,0,1,0,192,39.72,2.45,2.45,0,0,0,189.52,37.27Z"/><path class="cls-3" d="M222,30.05a1.39,1.39,0,1,0,1.38,1.39A1.4,1.4,0,0,0,222,30.05Z"/><path class="cls-3" d="M254.05,34.69a1.39,1.39,0,1,0,1.39,1.39A1.39,1.39,0,0,0,254.05,34.69Z"/><path class="cls-8" d="M130.25,28.68a7.61,7.61,0,0,0,13.31,5.06,9.58,9.58,0,0,0,17.64-4,8.71,8.71,0,0,0,16.73,2.17,7.61,7.61,0,0,0,14-.45,7.62,7.62,0,0,0,12.78,2.26,9.57,9.57,0,0,0,17.63-4A8.71,8.71,0,0,0,239,31.93a7.62,7.62,0,0,0,13.06,1.23,5.4,5.4,0,0,0,8.41-4.48V3.26H130.25Z"/><path class="cls-1" d="M156.35,79.76A3.68,3.68,0,1,0,160,83.44,3.68,3.68,0,0,0,156.35,79.76Z"/><path class="cls-1" d="M169,80.76a2.12,2.12,0,1,0,2.12,2.12A2.13,2.13,0,0,0,169,80.76Z"/><path class="cls-1" d="M240.19,82.68a1.52,1.52,0,1,0,1.53,1.52A1.52,1.52,0,0,0,240.19,82.68Z"/><path class="cls-1" d="M250.66,87.64a2.06,2.06,0,1,0,2.05,2.06A2.06,2.06,0,0,0,250.66,87.64Z"/><path class="cls-1" d="M197.76,88.31a1.43,1.43,0,1,0,1.43,1.42A1.43,1.43,0,0,0,197.76,88.31Z"/><path class="cls-4" d="M12.23,19.13c2.23,3.13-5.06,6.35-7.29,12.23C7.1,50.2,20.5,54.69,42.51,54.84c8.93.07,8.49,9.24,14.74,16,1-3.06,3-4.76,7.8-3,12.8,4.76,11.55-7.33,17.85-10.4s19.82.78,21.8,3.24,8.38,7,10.91,4.66,12.22-7.55,14.64-8.48V0H14.32C14.31.12,7,11.74,12.23,19.13Z"/><path class="cls-3" d="M12.23,19.13c2.23,3.13-5.06,6.35-7.29,12.23,1.39,12.15,7.47,18.33,17.51,21.23a88.9,88.9,0,0,1,7.34-11.7c10.86-15.62,22,12.68,36-5.91s25.32,6,35.31,6.87c17.3,1.49,11.67-11.38,29-11.71L130.25,0H14.32C14.31.12,7,11.74,12.23,19.13Z"/><path class="cls-8" d="M11.06,35.44a7.62,7.62,0,0,0,10.41-3.51,8.71,8.71,0,0,0,16.72-2.17,9.58,9.58,0,0,0,17.64,4A7.61,7.61,0,0,0,68.6,31.48a7.62,7.62,0,0,0,14,.45,8.71,8.71,0,0,0,16.73-2.17,9.57,9.57,0,0,0,17.63,4,7.61,7.61,0,0,0,13.31-5.06V3.26L11.06,4.11Z"/><path class="cls-2" d="M96.11,83.94c-6.36-1.45-19.66-4.54-30.7-7.55,8,4.27,21.31,12.84,30.7,15,15.58,3.54,25,3.24,34.14,3V86.91C121.15,87.18,111.69,87.48,96.11,83.94Z"/><path class="cls-1" d="M89.54,47.42a3.78,3.78,0,1,0,3.77,3.78A3.78,3.78,0,0,0,89.54,47.42Z"/><path class="cls-1" d="M121.6,44a5,5,0,1,0,5,5A5,5,0,0,0,121.6,44Z"/><path class="cls-1" d="M66.22,54.44a2.32,2.32,0,1,0,2.31,2.32A2.32,2.32,0,0,0,66.22,54.44Z"/><path class="cls-1" d="M80.82,36a3.09,3.09,0,1,0,3.08,3.09A3.1,3.1,0,0,0,80.82,36Z"/><path class="cls-4" d="M85.1,60.27a4,4,0,1,0,4,4A4,4,0,0,0,85.1,60.27Z"/><path class="cls-4" d="M95.1,62.65a2.19,2.19,0,1,0,2.19,2.19A2.19,2.19,0,0,0,95.1,62.65Z"/><path class="cls-4" d="M125.91,65.43a2,2,0,1,0,2,2A2,2,0,0,0,125.91,65.43Z"/><path class="cls-4" d="M109.75,70.34A2.25,2.25,0,1,0,112,72.59,2.26,2.26,0,0,0,109.75,70.34Z"/><path class="cls-4" d="M69.66,71.93a1.66,1.66,0,1,0,1.66,1.66A1.65,1.65,0,0,0,69.66,71.93Z"/><path class="cls-1" d="M378.53,19.13c5.25-7.39-2.08-19-2.09-19.13H260.51V94.33c9.1.27,18.56.57,34.14-3C305,89,319.94,78.91,327.56,75.27c13-6.2,9.59-20.35,20.7-20.43,22-.15,35.4-4.64,37.56-23.48C383.6,25.48,376.3,22.26,378.53,19.13Z"/><path class="cls-4" d="M378.53,19.13c5.25-7.39-2.08-19-2.09-19.13H260.51V57c2.42.93,12.1,6.11,14.64,8.48s8.94-2.19,10.91-4.66,15.49-6.31,21.8-3.24,5.05,15.16,17.85,10.4c4.82-1.8,6.79-.1,7.8,3,6.26-6.81,5.81-16,14.75-16,22-.15,35.4-4.64,37.56-23.48C383.6,25.48,376.3,22.26,378.53,19.13Z"/><path class="cls-3" d="M378.53,19.13c5.25-7.39-2.08-19-2.09-19.13H260.51l.14,30.14c17.33.33,11.7,13.2,29,11.71C299.64,41,311,16.39,325,35s25.15-9.71,36,5.91a88.9,88.9,0,0,1,7.34,11.7c10-2.9,16.12-9.08,17.51-21.23C383.6,25.48,376.3,22.26,378.53,19.13Z"/><path class="cls-8" d="M260.51,28.68a7.61,7.61,0,0,0,13.31,5.06,9.57,9.57,0,0,0,17.63-4,8.71,8.71,0,0,0,16.73,2.17,7.61,7.61,0,0,0,14-.45,7.62,7.62,0,0,0,12.79,2.26,9.57,9.57,0,0,0,17.63-4,8.71,8.71,0,0,0,16.72,2.17,7.63,7.63,0,0,0,10.42,3.51V4.11l-119.2-.85Z"/><path class="cls-9" d="M390.76,25.42a5.4,5.4,0,0,1-8.41,4.48,7.62,7.62,0,0,1-13.06-1.23,8.71,8.71,0,0,1-16.73-2.17,9.57,9.57,0,0,1-17.63,4,7.62,7.62,0,0,1-12.78-2.26,7.62,7.62,0,0,1-14,.45,8.71,8.71,0,0,1-16.72-2.17,9.57,9.57,0,0,1-17.63,4,7.62,7.62,0,0,1-13.32-5.06,5.4,5.4,0,0,1-8.41,4.48A7.61,7.61,0,0,1,239,28.67a8.71,8.71,0,0,1-16.73-2.17,9.57,9.57,0,0,1-17.63,4,7.62,7.62,0,0,1-12.78-2.26,7.62,7.62,0,0,1-14,.45,8.71,8.71,0,0,1-16.73-2.17,9.57,9.57,0,0,1-17.63,4,7.61,7.61,0,0,1-13.31-5.06,7.61,7.61,0,0,1-13.31,5.06,9.57,9.57,0,0,1-17.63-4,8.71,8.71,0,0,1-16.73,2.17,7.62,7.62,0,0,1-14-.45,7.62,7.62,0,0,1-12.78,2.26,9.57,9.57,0,0,1-17.63-4,8.71,8.71,0,0,1-16.73,2.17,7.61,7.61,0,0,1-13,1.23A5.4,5.4,0,0,1,0,25.42C3.28,17,4.87,3.26,9.84,0H380.92C385.89,3.26,387.48,17,390.76,25.42Z"/><path class="cls-10" d="M390.76,26c-3.72,2.45-6.9-2.15-7.18-4.41-.42,3.75-.61,5.87-3.89,5.87A6.81,6.81,0,0,1,373.31,24a6,6,0,0,1-10.46-4,6,6,0,0,1-10.46,4,7.53,7.53,0,0,1-13.86-3.12,6.84,6.84,0,0,1-13.14,1.7,6,6,0,0,1-11-.35,6,6,0,0,1-10,1.77,7.53,7.53,0,0,1-13.86-3.12,6.84,6.84,0,0,1-13.14,1.7,6,6,0,0,1-10.26,1,4.16,4.16,0,0,1-2.36.72A4.24,4.24,0,0,1,260.5,20c-2.19,4.23-2.59,6.63-8.53,7.72-3.23.6-7.59-1.61-8.92-3.74a6,6,0,0,1-10.46-4,6,6,0,0,1-10.46,4,7.52,7.52,0,0,1-13.85-3.12,6.84,6.84,0,0,1-13.14,1.7,6,6,0,0,1-11-.35,6,6,0,0,1-10,1.77,7.53,7.53,0,0,1-13.86-3.12,6.84,6.84,0,0,1-13.14,1.7,6,6,0,0,1-10.26,1A4.24,4.24,0,0,1,130.25,20a4.24,4.24,0,0,1-6.61,3.52,6,6,0,0,1-10.26-1,6.84,6.84,0,0,1-13.14-1.7A7.53,7.53,0,0,1,86.38,24a6,6,0,0,1-10-1.77,6,6,0,0,1-11,.35,6.84,6.84,0,0,1-13.14-1.7A7.52,7.52,0,0,1,38.37,24a6,6,0,0,1-10.46-4,6,6,0,0,1-10.46,4,6.83,6.83,0,0,1-6.38,3.54c-3.28,0-3.48-2.12-3.9-5.87C6.89,23.88,3.72,28.48,0,26,0,16,0,0,9.84,0H380.92C390.76,0,390.76,16,390.76,26Z"/><path class="cls-11" d="M390.76,25.42c-.07-.18-.14-.35-.2-.53-.37-5.72-1.38-11.43-4.2-14.52A7.08,7.08,0,0,0,380.92,8H9.84A7,7,0,0,0,4.4,10.37C1.57,13.46.56,19.17.2,24.89l-.2.53C0,15.34.19,0,9.84,0H380.92C390.56,0,390.75,15.34,390.76,25.42Z"/><path class="cls-2" d="M260.51,86.91v7.42c9.1.27,18.56.57,34.14-3,9.39-2.13,22.65-10.7,30.7-15-11,3-24.33,6.1-30.7,7.55C279.07,87.48,269.61,87.18,260.51,86.91Z"/><circle class="cls-5" cx="301.23" cy="51.2" r="3.78"/><path class="cls-1" d="M269.16,44a5,5,0,1,0,5,5A5,5,0,0,0,269.16,44Z"/><path class="cls-1" d="M324.55,54.44a2.32,2.32,0,1,0,2.32,2.32A2.32,2.32,0,0,0,324.55,54.44Z"/><path class="cls-1" d="M309.94,36A3.09,3.09,0,1,0,313,39.11,3.09,3.09,0,0,0,309.94,36Z"/><path class="cls-4" d="M305.66,60.27a4,4,0,1,0,4,4A4,4,0,0,0,305.66,60.27Z"/><path class="cls-4" d="M295.66,62.65a2.19,2.19,0,1,0,2.18,2.19A2.2,2.2,0,0,0,295.66,62.65Z"/><path class="cls-4" d="M264.85,65.43a2,2,0,1,0,2,2A2,2,0,0,0,264.85,65.43Z"/><path class="cls-4" d="M281,70.34a2.25,2.25,0,1,0,2.25,2.25A2.26,2.26,0,0,0,281,70.34Z"/><path class="cls-4" d="M321.1,71.93a1.66,1.66,0,1,0,1.66,1.66A1.65,1.65,0,0,0,321.1,71.93Z"/></g></svg>